HIERARCHY
ROOT Hips
{
	OFFSET 0.000000 0.000000 0.000000
	CHANNELS 6 Xposition Yposition Zposition Xrotation Yrotation Zrotation
	JOINT LeftUpLeg_virtual
	{
		OFFSET 0.000000 0.000000 0.000000
		CHANNELS 3 Xrotation Yrotation Zrotation
		JOINT LeftUpLeg
		{
			OFFSET 13.026900 -6.336304 -1.092800
			CHANNELS 3 Xrotation Yrotation Zrotation
			JOINT LeftLeg
			{
				OFFSET 0.524474 -46.096886 9.782700
				CHANNELS 3 Xrotation Yrotation Zrotation
				JOINT LeftFoot
				{
					OFFSET -0.524474 -53.427422 -12.948200
					CHANNELS 3 Xrotation Yrotation Zrotation
					JOINT LeftToeBase
					{
						OFFSET 0.192200 -14.009700 16.364100
						CHANNELS 3 Xrotation Yrotation Zrotation
						JOINT LeftToe_End
						{
							OFFSET -1.784700 -0.561700 9.474800
							CHANNELS 3 Xrotation Yrotation Zrotation
							End Site
							{
								OFFSET 0 0 0
							}
						}
					}
				}
			}
		}
	}
	JOINT RightUpLeg_virtual
	{
		OFFSET 0.000000 0.000000 0.000000
		CHANNELS 3 Xrotation Yrotation Zrotation
		JOINT RightUpLeg
		{
			OFFSET -12.883000 -6.336304 -1.092800
			CHANNELS 3 Xrotation Yrotation Zrotation
			JOINT RightLeg
			{
				OFFSET -0.524587 -46.096825 9.782800
				CHANNELS 3 Xrotation Yrotation Zrotation
				JOINT RightFoot
				{
					OFFSET 0.524587 -53.427383 -12.948300
					CHANNELS 3 Xrotation Yrotation Zrotation
					JOINT RightToeBase
					{
						OFFSET -0.192200 -14.009700 16.364100
						CHANNELS 3 Xrotation Yrotation Zrotation
						JOINT RightToe_End
						{
							OFFSET 1.784700 -0.561700 9.474800
							CHANNELS 3 Xrotation Yrotation Zrotation
							End Site
							{
								OFFSET 0 0 0
							}
						}
					}
				}
			}
		}
	}
	JOINT Spine_virtual
	{
		OFFSET 0.000000 0.000000 0.000000
		CHANNELS 3 Xrotation Yrotation Zrotation
		JOINT Spine
		{
			OFFSET 0.072000 7.257294 -0.789700
			CHANNELS 3 Xrotation Yrotation Zrotation
			JOINT Spine1
			{
				OFFSET 0.000000 12.508769 -0.658067
				CHANNELS 3 Xrotation Yrotation Zrotation
				JOINT Spine1_split
				{
					OFFSET 0.000000 12.508769 -0.658067
					CHANNELS 3 Xrotation Yrotation Zrotation
					JOINT Spine2
					{
						OFFSET 0.000000 12.508769 -0.658067
						CHANNELS 3 Xrotation Yrotation Zrotation
						JOINT Neck_virtual
						{
							OFFSET 0.000000 0.000000 0.000000
							CHANNELS 3 Xrotation Yrotation Zrotation
							JOINT Neck
							{
								OFFSET 0.000000 14.033295 7.520400
								CHANNELS 3 Xrotation Yrotation Zrotation
								JOINT Head
								{
									OFFSET 0.000000 8.198502 5.703100
									CHANNELS 3 Xrotation Yrotation Zrotation
									JOINT HeadTop_End
									{
										OFFSET 0.000000 17.760803 13.332701
										CHANNELS 3 Xrotation Yrotation Zrotation
										End Site
										{
											OFFSET 0 0 0
										}
									}
								}
							}
						}
						JOINT LeftShoulder_virtual
						{
							OFFSET 0.000000 0.000000 0.000000
							CHANNELS 3 Xrotation Yrotation Zrotation
							JOINT LeftShoulder
							{
								OFFSET 6.292450 5.785301 -0.669000
								CHANNELS 3 Xrotation Yrotation Zrotation
								JOINT LeftShoulder_split
								{
									OFFSET 6.292450 5.785301 -0.669000
									CHANNELS 3 Xrotation Yrotation Zrotation
									JOINT LeftArm
									{
										OFFSET 13.907140 -6.093903 1.965100
										CHANNELS 3 Xrotation Yrotation Zrotation
										JOINT LeftForeArm
										{
											OFFSET 34.140198 0.000000 0.000000
											CHANNELS 3 Xrotation Yrotation Zrotation
											JOINT LeftHand
											{
												OFFSET 40.960209 0.000000 0.000000
												CHANNELS 3 Xrotation Yrotation Zrotation
												End Site
												{
													OFFSET 0 0 0
												}
											}
										}
									}
								}
							}
						}
						JOINT RightShoulder_virtual
						{
							OFFSET 0.000000 0.000000 0.000000
							CHANNELS 3 Xrotation Yrotation Zrotation
							JOINT RightShoulder
							{
								OFFSET -6.292450 5.785301 -0.669000
								CHANNELS 3 Xrotation Yrotation Zrotation
								JOINT RightShoulder_split
								{
									OFFSET -6.292450 5.785301 -0.669000
									CHANNELS 3 Xrotation Yrotation Zrotation
									JOINT RightArm
									{
										OFFSET -13.907140 -6.093903 1.965100
										CHANNELS 3 Xrotation Yrotation Zrotation
										JOINT RightForeArm
										{
											OFFSET -34.140198 0.000000 0.000000
											CHANNELS 3 Xrotation Yrotation Zrotation
											JOINT RightHand
											{
												OFFSET -40.960209 0.000000 0.000000
												CHANNELS 3 Xrotation Yrotation Zrotation
												End Site
												{
													OFFSET 0 0 0
												}
											}
										}
									}
								}
							}
						}
					}
				}
			}
		}
	}
}
MOTION
Frames: 4
Frame Time: 0.03333333
4.442525 99.233032 -15.708492 0.000000 0.000000 0.000000 45.302872 7.112025 -5.753134 -89.671566 6.263476 21.234841 42.381088 9.506625 -3.888259 8.478301 14.557406 -8.105786 -0.844260 0.702066 -1.007481 0.000000 0.000000 0.000000 45.782434 6.699808 -4.166946 -43.416586 7.203971 -10.267011 64.290795 2.722918 -3.526914 3.411827 -2.057529 10.324628 -12.089080 1.055975 3.154364 0.000000 0.000000 0.000000 48.914444 -0.642209 -0.850411 12.649338 0.354925 -2.108269 11.511217 1.705113 -0.750517 -0.029694 2.321892 1.046577 0.000000 0.000000 0.000000 26.927053 1.220243 -0.743448 -23.042693 -4.921255 5.919153 -17.901470 5.051140 -7.159713 0.000000 0.000000 0.000000 25.637434 2.363614 -0.394905 4.025434 -2.902649 7.459367 7.495281 -19.968563 -5.016041 -34.201578 -45.554035 -33.347258 2.255469 -46.537275 3.460562 0.000000 0.000000 0.000000 24.849845 0.994887 -0.092915 -2.317734 33.883435 11.695781 6.631389 9.536271 3.729265 -51.190717 22.221303 26.632899 2.652198 38.450447 -4.085853 0.000000 0.000000 0.000000 
4.180056 101.168991 -13.934170 0.000000 0.000000 0.000000 41.194643 4.494822 -4.246002 -83.626186 7.032728 19.890414 39.547086 9.766514 -3.642594 7.889195 15.609743 -8.772528 -0.785674 0.788499 -1.256396 0.000000 0.000000 0.000000 41.609348 3.800538 -2.559360 -47.822492 8.433737 -9.573549 67.952323 2.554318 -3.429587 0.469431 -2.156562 9.160375 -8.598364 1.348913 1.428444 0.000000 0.000000 0.000000 44.625830 -2.629787 -0.194419 13.111611 0.429938 -2.202382 11.585890 1.718180 -0.546918 -0.068101 2.193491 1.062211 0.000000 0.000000 0.000000 26.888599 1.196468 -0.540024 -22.558493 -4.696667 5.962984 -17.069531 5.863620 -6.556187 0.000000 0.000000 0.000000 25.457295 2.297244 -0.200749 3.981903 -2.259145 6.015189 6.189245 -20.200764 -4.711418 -32.698499 -44.318454 -34.849517 1.916095 -46.135746 2.980617 0.000000 0.000000 0.000000 24.684340 0.978147 0.033548 -2.417167 32.920405 12.270751 7.226513 9.352962 4.459261 -49.495994 22.037245 29.450335 2.816249 37.103380 -4.692258 0.000000 0.000000 0.000000 
3.864591 102.884674 -12.081799 0.000000 0.000000 0.000000 37.265652 1.980814 -2.932668 -77.655201 7.640800 18.678892 36.979194 9.833912 -3.354311 7.050305 16.043997 -9.326297 -1.129104 0.830592 -1.359095 0.000000 0.000000 0.000000 37.562082 0.809692 -1.041718 -51.152595 9.648322 -9.013044 68.782081 2.620184 -3.511708 -1.033295 -1.642490 8.706466 -7.775327 1.267102 0.522389 0.000000 0.000000 0.000000 40.578649 -4.453671 0.387379 13.390185 0.444706 -2.338214 11.608777 1.779662 -0.344325 -0.146048 2.006541 1.159045 0.000000 0.000000 0.000000 26.774837 1.233672 -0.382888 -21.977481 -4.476637 5.890202 -16.305816 6.543253 -6.061174 0.000000 0.000000 0.000000 25.209315 2.302051 -0.011042 3.919580 -1.676224 4.493746 4.844732 -20.041389 -4.527509 -31.266980 -42.943489 -36.555101 1.473949 -44.932205 2.419857 0.000000 0.000000 0.000000 24.448377 1.032872 0.141500 -2.390306 31.830181 12.573215 7.875170 9.015413 5.032325 -47.849099 21.624705 31.859841 2.816358 35.487395 -5.154757 0.000000 0.000000 0.000000 
3.494448 104.417183 -10.220730 0.000000 0.000000 0.000000 33.653367 -0.225679 -2.009898 -71.980618 8.245374 17.906620 34.756780 9.815918 -3.132379 6.201864 16.029967 -9.606391 -1.101626 0.832291 -1.372089 0.000000 0.000000 0.000000 33.674363 -1.863253 0.053028 -53.092642 10.601706 -8.713423 66.584960 2.636509 -3.539658 -1.744359 -0.909510 8.224425 -7.840902 0.960325 0.447514 0.000000 0.000000 0.000000 36.854461 -6.119287 0.801801 13.505312 0.412159 -2.472190 11.580364 1.883824 -0.132129 -0.208576 1.877681 1.274008 0.000000 0.000000 0.000000 26.571762 1.319271 -0.243011 -21.336599 -4.250376 5.718695 -15.509994 7.133970 -5.699166 0.000000 0.000000 0.000000 24.879587 2.362928 0.190536 3.850919 -1.191024 3.020906 3.808355 -19.664752 -4.396741 -29.901694 -41.571810 -38.363701 1.091509 -43.242235 1.915035 0.000000 0.000000 0.000000 24.144242 1.148933 0.255974 -2.249093 30.642052 12.636838 8.482948 8.478809 5.658471 -46.116051 20.892138 33.706195 2.679456 33.916513 -5.491222 0.000000 0.000000 0.000000 
